<svg width="0" height="0" class="hidden">
    <symbol fill="none" xmlns="http://www.w3.org/2000/svg" viewBox="0 0 16 16" id="warning">
        <path
        d="M14.93 13.38L8.43 2.12A.5.5 0 008 1.88a.5.5 0 00-.43.25l-6.5 11.25a.5.5 0 00.43.76h13a.5.5 0 00.43-.76zM7.5 6.5c0-.07.06-.13.13-.13h.75c.06 0 .12.06.12.13v2.88c0 .06-.06.12-.12.12h-.75a.13.13 0 01-.13-.13V6.5zM8 12a.75.75 0 010-1.5.75.75 0 010 1.5z"
        fill="currentColor"/>
    </symbol>
    <symbol fill="none" xmlns="http://www.w3.org/2000/svg" viewBox="0 0 15 15" id="cross">
        <path
        d="M2.64 1.27L7.5 6.13l4.84-4.84A.92.92 0 0113 1a1 1 0 01.93 1.36.9.9 0 01-.2.3L8.84 7.5l4.89 4.89A.9.9 0 0114 13a1 1 0 01-1 1 .92.92 0 01-.69-.27L7.5 8.87l-4.85 4.85A.92.92 0 012 14a1 1 0 01-.93-1.36.9.9 0 01.2-.3L6.16 7.5 1.27 2.61A.9.9 0 011 2a1 1 0 011-1c.24 0 .47.1.64.27z"
        fill="currentColor"/>
    </symbol>
    <symbol fill="none" xmlns="http://www.w3.org/2000/svg" viewBox="0 0 24 24" id="check">
        <path
        d="M12 2a10.01 10.01 0 000 20 10.01 10.01 0 000-20zm-2 14.41l-3.71-3.7 1.41-1.42 2.3 2.3 5.3-5.3 1.4 1.42-6.7 6.7z"
        fill="currentColor"/>
    </symbol>
    <symbol fill="none" xmlns="http://www.w3.org/2000/svg" viewBox="0 0 16 16" id="edit">
        <path d="M16 14H0v2h16v-2zM11.7 3.3c.4-.4.4-1 0-1.4L10.1.3c-.4-.4-1-.4-1.4 0L0 9v3h3l8.7-8.7z" fill="currentColor"/>
    </symbol>
    <symbol xmlns="http://www.w3.org/2000/svg" fill="none" viewBox="0 0 16 16" id="info">
        <path fill="currentColor"
            d="M8.93 6.59l-2.29.29-.08.38.45.08c.3.07.35.17.29.47l-.74 3.47c-.2.9.1 1.31.8 1.31.55 0 1.18-.25 1.47-.6l.09-.41c-.2.18-.5.25-.69.25-.27 0-.37-.2-.3-.54l1-4.7zM8 5.5a1 1 0 100-2 1 1 0 000 2z"/>
    </symbol>
    <symbol xmlns="http://www.w3.org/2000/svg" fill="currentColor" viewBox="0 0 20 20" id="bell">
        <path fill="currentColor" d="M10 18l2-2H8l2 2zm4-8V8c0-2-1-4-3-4V3l-1-1-1 1v1C7 4 6 6 6 8v2l-2 3v2h12v-2l-2-3z"/>
    </symbol>
</svg>